<svg version="1.1" width="64" height="64" viewBox="380 290 310 260" xmlns="http://www.w3.org/2000/svg">
  <rect x="380" y="290" width="310" height="260" rx="58" ry="58" fill="#0C1A38"/>
  <path
    fill="#FFFFFF"
    fill-rule="evenodd"
    d="M 566.24778,512.8077 c 7.083,-1.8354 20.05261,-8.0899 26.24344,-12.6558 4.05185,-2.9883 4.0854,-3.0591 1.17133,-2.4729 -27.74224,5.5812 -33.44725,4.9353 -63.9051,-7.2357 -20.97908,-8.3833 -28.09565,-10.2375 -41.71312,-10.8679 -11.36099,-0.526 -26.23908,1.8647 -35.14587,5.6474 l -4.21434,1.7898 9.98921,0.5697 c 15.83811,0.9031 22.54215,2.9333 42.40369,12.8411 19.80448,9.8793 23.58579,11.4175 33.08553,13.4591 7.96503,1.7117 23.31625,1.1975 32.08523,-1.0748 z m 17.91477,-40.9978 c 11.4832,-2.4704 22.73525,-8.3158 28.81706,-14.9703 5.00212,-5.4731 11.73679,-17.3483 11.03411,-19.4563 -0.19748,-0.5924 -2.33817,1.4569 -4.75709,4.5541 -11.4955,14.7187 -36.02318,23.6557 -60.59408,22.0783 -28.30134,-1.817 -47.49773,-16.2022 -56.59499,-42.4106 -7.12163,-20.5168 -7.73952,-49.1116 -1.41022,-65.262 l 2.45841,-6.2731 -4.7266,-4.3594 c -2.59963,-2.3977 -5.04952,-4.3643 -5.44421,-4.3701 -0.98231,-0.015 -7.95017,9.3862 -11.48065,15.4893 -3.35303,5.7964 -5.50839,11.3889 -7.90069,20.5 -2.53107,9.6396 -2.31081,30.9982 0.42481,41.1956 7.79812,29.0684 30.15196,47.8257 64.67414,54.2687 10.03845,1.8736 34.69588,1.3402 45.5,-0.9842 z m -91.23733,-3.9193 c 0.40553,-0.4109 -1.06267,-2.2735 -3.26267,-4.1391 -3.40873,-2.8906 -4.76047,-3.3941 -9.14466,-3.4068 -10.47211,-0.03 -23.10782,-5.6653 -32.2003,-14.36 -24.80215,-23.7171 -32.49937,-74.0289 -15.62874,-102.1549 4.40444,-7.3429 9.58729,-12.8445 15.2595,-16.1981 18.78072,-11.1037 43.09141,-7.1618 60.2147,9.7637 14.5816,14.4131 22.0068,35.9518 21.99249,63.7949 -0.007,14.159 -2.02887,26.1982 -5.69724,33.9287 l -1.67008,3.5194 3.93716,3.3637 3.93717,3.3637 5.66591,-5.9551 c 16.90139,-17.7643 23.81541,-49.7107 16.24904,-75.0792 -9.28353,-31.1258 -38.29263,-51.0017 -74.43754,-51.0017 -38.07937,0 -67.87654,22.8474 -77.59877,59.5 -2.83416,10.6848 -2.60093,33.2669 0.45397,43.9549 7.76785,27.1771 29.11192,46.5138 56.93078,51.5768 5.5356,1.0074 33.91723,0.6256 34.99928,-0.4709 z M 617.3988,350.8298 c -0.25296,-5.7545 -1.7128,-19.9373 -2.84989,-27.6874 -0.53327,-3.6346 -0.63659,-3.709 -7.21369,-5.1928 -15.74789,-3.5526 -30.22132,-4.8394 -48.67267,-4.3272 -9.9,0.2748 -19.76943,1.0402 -21.93206,1.7008 l -3.93207,1.2012 3.85297,3.2347 3.85298,3.2348 15.07909,-0.4562 c 11.78038,-0.3564 16.45502,-0.1032 21.36876,1.1574 15.79831,4.0531 25.88338,11.9453 32.35838,25.3227 3.41164,7.0484 4.42496,8.372 6.21415,8.1169 1.94729,-0.2777 2.1143,-0.8396 1.87405,-6.3049 z"
  />
</svg>
